<?xml version="1.0" encoding="UTF-8" standalone="no"?>

<svg width="512"
     height="512"
     viewBox="0 0 512 512"
     version="1.1"
     xmlns="http://www.w3.org/2000/svg">
    <path d="m 476.92628,145.00526 c -5.31347,-19.85305 -20.91656,-35.45462 -40.76943,-40.76899 -35.94664,-9.641823 -180.15768,-9.641823 -180.15768,-9.641823 0,0 -144.20905,0 -180.157138,9.641823 -19.8529,5.31437 -35.45447,20.91594 -40.76885,40.76899 -9.64183,35.94792 -9.64183,110.99473 -9.64183,110.99473 0,0 0,75.04714 9.64183,110.99538 5.31438,19.8529 20.91595,35.45436 40.76885,40.76782 35.948088,9.64236 180.157138,9.64236 180.157138,9.64236 0,0 144.21104,0 180.15768,-9.64236 19.85287,-5.31346 35.45596,-20.91492 40.76943,-40.76782 9.64237,-35.94824 9.64237,-110.99538 9.64237,-110.99538 0,0 -0.0387,-75.04681 -9.64237,-110.99473 z"
          fill="#ff0000"/>
    <path d="m 119.50065,197.50029 h 38.99981 v 38.99982 h -38.99981 z m 194.99907,77.99962 H 119.50065 v 38.9998 h 194.99907 z m 77.99963,0 h -38.99982 v 38.9998 h 38.99982 z m 0,-77.99963 H 197.50029 v 38.99982 h 194.99906 z"
          fill="#ffffff"/>
</svg>
